<mxfile host="app.diagrams.net" modified="2023-01-31T14:31:53.756Z" agent="5.0 (Windows)" etag="bvATFmF-od1m0woV2fNf" version="20.8.13" type="github">
  <diagram name="Seite-1" id="8dhn65Cj3MbclAA8dtAb">
    <mxGraphModel dx="5797" dy="976" grid="1" gridSize="10" guides="1" tooltips="1" connect="1" arrows="1" fold="1" page="1" pageScale="1" pageWidth="4681" pageHeight="3300" background="#ffffff" math="0" shadow="0">
      <root>
        <mxCell id="0" />
        <mxCell id="1" parent="0" />
        <mxCell id="Scy77tW3S1ukV7C9qBci-56" value="&lt;p style=&quot;margin:0px;margin-top:4px;text-align:center;&quot;&gt;&lt;b&gt;Game&lt;/b&gt;&lt;br&gt;&lt;/p&gt;&lt;hr size=&quot;1&quot;&gt;&lt;p style=&quot;margin:0px;margin-left:4px;&quot;&gt;whitePlayer&lt;/p&gt;&lt;p style=&quot;margin:0px;margin-left:4px;&quot;&gt;blackPlayer&lt;/p&gt;&lt;p style=&quot;margin:0px;margin-left:4px;&quot;&gt;board&lt;/p&gt;&lt;hr size=&quot;1&quot;&gt;&lt;p style=&quot;margin:0px;margin-left:4px;&quot;&gt;Play() : void&lt;/p&gt;&lt;p style=&quot;margin:0px;margin-left:4px;&quot;&gt;UpdateBoard() : void // Updating Board &lt;br&gt;&lt;/p&gt;&lt;p style=&quot;margin:0px;margin-left:4px;&quot;&gt;&lt;span style=&quot;white-space: pre;&quot;&gt; &lt;/span&gt;&lt;span style=&quot;white-space: pre;&quot;&gt; &lt;/span&gt;&lt;span style=&quot;white-space: pre;&quot;&gt; &lt;/span&gt;&lt;span style=&quot;white-space: pre;&quot;&gt; &lt;/span&gt;&amp;nbsp; // and Pieces&lt;br&gt;&lt;/p&gt;&lt;p style=&quot;margin:0px;margin-left:4px;&quot;&gt;GameEnd() : bool&lt;/p&gt;&lt;p style=&quot;margin:0px;margin-left:4px;&quot;&gt;CheckKills() : void&lt;/p&gt;&lt;p style=&quot;margin:0px;margin-left:4px;&quot;&gt;MoveIsValid() : bool&lt;br&gt;&lt;/p&gt;" style="verticalAlign=top;align=left;overflow=fill;fontSize=12;fontFamily=Helvetica;html=1;" parent="1" vertex="1">
          <mxGeometry x="-2420" y="1760" width="210" height="180" as="geometry" />
        </mxCell>
        <mxCell id="Scy77tW3S1ukV7C9qBci-58" style="edgeStyle=orthogonalEdgeStyle;rounded=0;orthogonalLoop=1;jettySize=auto;html=1;exitX=0.5;exitY=1;exitDx=0;exitDy=0;" parent="1" edge="1">
          <mxGeometry relative="1" as="geometry">
            <mxPoint x="-1760" y="1800" as="sourcePoint" />
            <mxPoint x="-1760" y="1800" as="targetPoint" />
          </mxGeometry>
        </mxCell>
        <mxCell id="yHUfxGGSfnQ4oPz9yts8-9" style="edgeStyle=orthogonalEdgeStyle;rounded=0;orthogonalLoop=1;jettySize=auto;html=1;exitX=0;exitY=0.25;exitDx=0;exitDy=0;entryX=1;entryY=0.5;entryDx=0;entryDy=0;startArrow=cross;startFill=0;endArrow=open;endFill=0;" edge="1" parent="1" source="Scy77tW3S1ukV7C9qBci-62" target="yHUfxGGSfnQ4oPz9yts8-6">
          <mxGeometry relative="1" as="geometry" />
        </mxCell>
        <mxCell id="Scy77tW3S1ukV7C9qBci-62" value="&lt;p style=&quot;margin:0px;margin-top:4px;text-align:center;&quot;&gt;&lt;i&gt;&amp;lt;&amp;lt;abstract&amp;gt;&amp;gt;&lt;/i&gt;&lt;br&gt;&lt;b&gt;Pieces&lt;/b&gt;&lt;br&gt;&lt;/p&gt;&lt;hr size=&quot;1&quot;&gt;&lt;p style=&quot;margin:0px;margin-left:4px;&quot;&gt;- PieceColor: PieceColor&lt;/p&gt;&lt;p style=&quot;margin:0px;margin-left:4px;&quot;&gt;- image: image&lt;/p&gt;&lt;p style=&quot;margin:0px;margin-left:4px;&quot;&gt;- points: int&lt;/p&gt;&lt;div&gt;&amp;nbsp;- placeAt: Square&lt;/div&gt;&lt;div&gt;&amp;nbsp;- moved: bool&lt;/div&gt;&lt;hr size=&quot;1&quot;&gt;&lt;div&gt;&amp;nbsp;+ ValidMove(): Square[]&lt;br&gt;&lt;/div&gt;&lt;div&gt;&amp;nbsp;+ attackSquare(): Square[]&lt;br&gt;&lt;/div&gt;&lt;div&gt;&amp;nbsp;+ captureFreeMoves(): Square[]&lt;/div&gt;&lt;div&gt;&amp;nbsp;+ remove(): boolean&lt;br&gt;&lt;/div&gt;" style="verticalAlign=top;align=left;overflow=fill;fontSize=12;fontFamily=Helvetica;html=1;" parent="1" vertex="1">
          <mxGeometry x="-2830" y="1760" width="190" height="210" as="geometry" />
        </mxCell>
        <mxCell id="IA7U_873xqGfDjJFMJLf-55" style="edgeStyle=orthogonalEdgeStyle;rounded=0;orthogonalLoop=1;jettySize=auto;html=1;exitX=1;exitY=0.5;exitDx=0;exitDy=0;entryX=0;entryY=0.75;entryDx=0;entryDy=0;dashed=1;strokeColor=#000000;endArrow=block;endFill=0;" parent="1" source="Scy77tW3S1ukV7C9qBci-75" target="Scy77tW3S1ukV7C9qBci-62" edge="1">
          <mxGeometry relative="1" as="geometry" />
        </mxCell>
        <mxCell id="Scy77tW3S1ukV7C9qBci-75" value="Knight" style="swimlane;fontStyle=1;align=center;verticalAlign=top;childLayout=stackLayout;horizontal=1;startSize=26;horizontalStack=0;resizeParent=1;resizeParentMax=0;resizeLast=0;collapsible=1;marginBottom=0;" parent="1" vertex="1">
          <mxGeometry x="-3320" y="2070" width="160" height="34" as="geometry">
            <mxRectangle x="-3260" y="2090" width="80" height="30" as="alternateBounds" />
          </mxGeometry>
        </mxCell>
        <mxCell id="Scy77tW3S1ukV7C9qBci-77" value="" style="line;strokeWidth=1;fillColor=none;align=left;verticalAlign=middle;spacingTop=-1;spacingLeft=3;spacingRight=3;rotatable=0;labelPosition=right;points=[];portConstraint=eastwest;strokeColor=inherit;" parent="Scy77tW3S1ukV7C9qBci-75" vertex="1">
          <mxGeometry y="26" width="160" height="8" as="geometry" />
        </mxCell>
        <mxCell id="IA7U_873xqGfDjJFMJLf-50" style="edgeStyle=orthogonalEdgeStyle;rounded=0;orthogonalLoop=1;jettySize=auto;html=1;exitX=1;exitY=0.5;exitDx=0;exitDy=0;entryX=0;entryY=0.75;entryDx=0;entryDy=0;strokeColor=#000000;endArrow=block;endFill=0;dashed=1;" parent="1" source="Scy77tW3S1ukV7C9qBci-88" target="Scy77tW3S1ukV7C9qBci-62" edge="1">
          <mxGeometry relative="1" as="geometry" />
        </mxCell>
        <mxCell id="Scy77tW3S1ukV7C9qBci-88" value="King" style="swimlane;fontStyle=1;align=center;verticalAlign=top;childLayout=stackLayout;horizontal=1;startSize=26;horizontalStack=0;resizeParent=1;resizeParentMax=0;resizeLast=0;collapsible=1;marginBottom=0;" parent="1" vertex="1">
          <mxGeometry x="-3320" y="1840" width="160" height="70" as="geometry">
            <mxRectangle x="-3250" y="1890" width="70" height="30" as="alternateBounds" />
          </mxGeometry>
        </mxCell>
        <mxCell id="Scy77tW3S1ukV7C9qBci-90" value="" style="line;strokeWidth=1;fillColor=none;align=left;verticalAlign=middle;spacingTop=-1;spacingLeft=3;spacingRight=3;rotatable=0;labelPosition=right;points=[];portConstraint=eastwest;strokeColor=inherit;" parent="Scy77tW3S1ukV7C9qBci-88" vertex="1">
          <mxGeometry y="26" width="160" height="8" as="geometry" />
        </mxCell>
        <mxCell id="Scy77tW3S1ukV7C9qBci-91" value="Â + Casteling():" style="text;strokeColor=none;fillColor=none;align=left;verticalAlign=top;spacingLeft=4;spacingRight=4;overflow=hidden;rotatable=0;points=[[0,0.5],[1,0.5]];portConstraint=eastwest;" parent="Scy77tW3S1ukV7C9qBci-88" vertex="1">
          <mxGeometry y="34" width="160" height="36" as="geometry" />
        </mxCell>
        <mxCell id="IA7U_873xqGfDjJFMJLf-51" style="edgeStyle=orthogonalEdgeStyle;rounded=0;orthogonalLoop=1;jettySize=auto;html=1;exitX=1;exitY=0.5;exitDx=0;exitDy=0;entryX=0;entryY=0.75;entryDx=0;entryDy=0;dashed=1;strokeColor=#000000;endArrow=block;endFill=0;" parent="1" source="Scy77tW3S1ukV7C9qBci-92" target="Scy77tW3S1ukV7C9qBci-62" edge="1">
          <mxGeometry relative="1" as="geometry" />
        </mxCell>
        <mxCell id="Scy77tW3S1ukV7C9qBci-92" value="Queen" style="swimlane;fontStyle=1;align=center;verticalAlign=top;childLayout=stackLayout;horizontal=1;startSize=26;horizontalStack=0;resizeParent=1;resizeParentMax=0;resizeLast=0;collapsible=1;marginBottom=0;" parent="1" vertex="1">
          <mxGeometry x="-3320" y="1920" width="160" height="34" as="geometry">
            <mxRectangle x="-3260" y="1940" width="80" height="30" as="alternateBounds" />
          </mxGeometry>
        </mxCell>
        <mxCell id="Scy77tW3S1ukV7C9qBci-94" value="" style="line;strokeWidth=1;fillColor=none;align=left;verticalAlign=middle;spacingTop=-1;spacingLeft=3;spacingRight=3;rotatable=0;labelPosition=right;points=[];portConstraint=eastwest;strokeColor=inherit;" parent="Scy77tW3S1ukV7C9qBci-92" vertex="1">
          <mxGeometry y="26" width="160" height="8" as="geometry" />
        </mxCell>
        <mxCell id="IA7U_873xqGfDjJFMJLf-52" style="edgeStyle=orthogonalEdgeStyle;rounded=0;orthogonalLoop=1;jettySize=auto;html=1;entryX=0;entryY=0.75;entryDx=0;entryDy=0;dashed=1;strokeColor=#000000;endArrow=block;endFill=0;" parent="1" source="Scy77tW3S1ukV7C9qBci-96" target="Scy77tW3S1ukV7C9qBci-62" edge="1">
          <mxGeometry relative="1" as="geometry" />
        </mxCell>
        <mxCell id="Scy77tW3S1ukV7C9qBci-96" value="Rook" style="swimlane;fontStyle=1;align=center;verticalAlign=top;childLayout=stackLayout;horizontal=1;startSize=26;horizontalStack=0;resizeParent=1;resizeParentMax=0;resizeLast=0;collapsible=1;marginBottom=0;" parent="1" vertex="1">
          <mxGeometry x="-3320" y="1970" width="160" height="34" as="geometry">
            <mxRectangle x="-3230" y="1970" width="70" height="30" as="alternateBounds" />
          </mxGeometry>
        </mxCell>
        <mxCell id="Scy77tW3S1ukV7C9qBci-98" value="" style="line;strokeWidth=1;fillColor=none;align=left;verticalAlign=middle;spacingTop=-1;spacingLeft=3;spacingRight=3;rotatable=0;labelPosition=right;points=[];portConstraint=eastwest;strokeColor=inherit;" parent="Scy77tW3S1ukV7C9qBci-96" vertex="1">
          <mxGeometry y="26" width="160" height="8" as="geometry" />
        </mxCell>
        <mxCell id="IA7U_873xqGfDjJFMJLf-53" style="edgeStyle=orthogonalEdgeStyle;rounded=0;orthogonalLoop=1;jettySize=auto;html=1;exitX=1;exitY=0.5;exitDx=0;exitDy=0;entryX=0;entryY=0.75;entryDx=0;entryDy=0;dashed=1;strokeColor=#000000;endArrow=block;endFill=0;" parent="1" source="Scy77tW3S1ukV7C9qBci-100" target="Scy77tW3S1ukV7C9qBci-62" edge="1">
          <mxGeometry relative="1" as="geometry" />
        </mxCell>
        <mxCell id="Scy77tW3S1ukV7C9qBci-100" value="Bishop" style="swimlane;fontStyle=1;align=center;verticalAlign=top;childLayout=stackLayout;horizontal=1;startSize=26;horizontalStack=0;resizeParent=1;resizeParentMax=0;resizeLast=0;collapsible=1;marginBottom=0;" parent="1" vertex="1">
          <mxGeometry x="-3320" y="2020" width="160" height="34" as="geometry">
            <mxRectangle x="-3260" y="2040" width="80" height="30" as="alternateBounds" />
          </mxGeometry>
        </mxCell>
        <mxCell id="Scy77tW3S1ukV7C9qBci-102" value="" style="line;strokeWidth=1;fillColor=none;align=left;verticalAlign=middle;spacingTop=-1;spacingLeft=3;spacingRight=3;rotatable=0;labelPosition=right;points=[];portConstraint=eastwest;strokeColor=inherit;" parent="Scy77tW3S1ukV7C9qBci-100" vertex="1">
          <mxGeometry y="26" width="160" height="8" as="geometry" />
        </mxCell>
        <mxCell id="IA7U_873xqGfDjJFMJLf-56" style="edgeStyle=orthogonalEdgeStyle;rounded=0;orthogonalLoop=1;jettySize=auto;html=1;exitX=1;exitY=0.5;exitDx=0;exitDy=0;entryX=0;entryY=0.75;entryDx=0;entryDy=0;dashed=1;strokeColor=#000000;endArrow=block;endFill=0;" parent="1" source="Scy77tW3S1ukV7C9qBci-104" target="Scy77tW3S1ukV7C9qBci-62" edge="1">
          <mxGeometry relative="1" as="geometry" />
        </mxCell>
        <mxCell id="yHUfxGGSfnQ4oPz9yts8-15" style="edgeStyle=orthogonalEdgeStyle;rounded=0;orthogonalLoop=1;jettySize=auto;html=1;startArrow=none;startFill=0;endArrow=none;endFill=0;" edge="1" parent="1" source="Scy77tW3S1ukV7C9qBci-104" target="yHUfxGGSfnQ4oPz9yts8-11">
          <mxGeometry relative="1" as="geometry" />
        </mxCell>
        <mxCell id="Scy77tW3S1ukV7C9qBci-104" value="Pawn" style="swimlane;fontStyle=1;align=center;verticalAlign=top;childLayout=stackLayout;horizontal=1;startSize=26;horizontalStack=0;resizeParent=1;resizeParentMax=0;resizeLast=0;collapsible=1;marginBottom=0;" parent="1" vertex="1">
          <mxGeometry x="-3320" y="2120" width="160" height="80" as="geometry">
            <mxRectangle x="-3250" y="2140" width="70" height="30" as="alternateBounds" />
          </mxGeometry>
        </mxCell>
        <mxCell id="Scy77tW3S1ukV7C9qBci-106" value="" style="line;strokeWidth=1;fillColor=none;align=left;verticalAlign=middle;spacingTop=-1;spacingLeft=3;spacingRight=3;rotatable=0;labelPosition=right;points=[];portConstraint=eastwest;strokeColor=inherit;" parent="Scy77tW3S1ukV7C9qBci-104" vertex="1">
          <mxGeometry y="26" width="160" height="8" as="geometry" />
        </mxCell>
        <mxCell id="Scy77tW3S1ukV7C9qBci-107" value="Promote():&#xa;EnPassant():&#xa;" style="text;strokeColor=none;fillColor=none;align=left;verticalAlign=top;spacingLeft=4;spacingRight=4;overflow=hidden;rotatable=0;points=[[0,0.5],[1,0.5]];portConstraint=eastwest;" parent="Scy77tW3S1ukV7C9qBci-104" vertex="1">
          <mxGeometry y="34" width="160" height="46" as="geometry" />
        </mxCell>
        <mxCell id="Scy77tW3S1ukV7C9qBci-129" value="&lt;p style=&quot;margin:0px;margin-top:4px;text-align:center;&quot;&gt;&lt;b&gt;RelativeValues&lt;/b&gt;&lt;/p&gt;&lt;hr size=&quot;1&quot;&gt;&lt;p style=&quot;margin:0px;margin-left:4px;&quot;&gt;noOfFigures: int&lt;/p&gt;&lt;p style=&quot;margin:0px;margin-left:4px;&quot;&gt;noOfEnemys: int&lt;/p&gt;&lt;p style=&quot;margin:0px;margin-left:4px;&quot;&gt;which Figure: char&lt;br&gt;&lt;/p&gt;&lt;hr size=&quot;1&quot;&gt;&lt;p style=&quot;margin:0px;margin-left:4px;&quot;&gt;CalcRelativePointValues(): int&lt;br&gt;&lt;/p&gt;" style="verticalAlign=top;align=left;overflow=fill;fontSize=12;fontFamily=Helvetica;html=1;" parent="1" vertex="1">
          <mxGeometry x="-3580" y="2200" width="170" height="120" as="geometry" />
        </mxCell>
        <mxCell id="IA7U_873xqGfDjJFMJLf-30" style="edgeStyle=orthogonalEdgeStyle;rounded=0;orthogonalLoop=1;jettySize=auto;html=1;exitX=1;exitY=0.5;exitDx=0;exitDy=0;entryX=0;entryY=0.5;entryDx=0;entryDy=0;" parent="1" source="Scy77tW3S1ukV7C9qBci-130" target="Scy77tW3S1ukV7C9qBci-163" edge="1">
          <mxGeometry relative="1" as="geometry" />
        </mxCell>
        <mxCell id="Scy77tW3S1ukV7C9qBci-130" value="&lt;p style=&quot;margin:0px;margin-top:4px;text-align:center;&quot;&gt;&lt;b&gt;Player&lt;/b&gt;&lt;/p&gt;&lt;hr size=&quot;1&quot;&gt;&lt;div&gt;&lt;br&gt;&lt;/div&gt;&lt;div&gt;&lt;br&gt;&lt;/div&gt;&lt;hr size=&quot;1&quot;&gt;" style="verticalAlign=top;align=left;overflow=fill;fontSize=12;fontFamily=Helvetica;html=1;" parent="1" vertex="1">
          <mxGeometry x="-2890" y="1570" width="160" height="25" as="geometry" />
        </mxCell>
        <mxCell id="Scy77tW3S1ukV7C9qBci-133" value="Field" style="swimlane;fontStyle=1;align=center;verticalAlign=top;childLayout=stackLayout;horizontal=1;startSize=26;horizontalStack=0;resizeParent=1;resizeParentMax=0;resizeLast=0;collapsible=1;marginBottom=0;" parent="1" vertex="1">
          <mxGeometry x="-2220" y="1540" width="170" height="120" as="geometry" />
        </mxCell>
        <mxCell id="Scy77tW3S1ukV7C9qBci-134" value="line: int&#xa;row: int&#xa;fen: str&#xa;" style="text;strokeColor=none;fillColor=none;align=left;verticalAlign=top;spacingLeft=4;spacingRight=4;overflow=hidden;rotatable=0;points=[[0,0.5],[1,0.5]];portConstraint=eastwest;" parent="Scy77tW3S1ukV7C9qBci-133" vertex="1">
          <mxGeometry y="26" width="170" height="44" as="geometry" />
        </mxCell>
        <mxCell id="Scy77tW3S1ukV7C9qBci-135" value="" style="line;strokeWidth=1;fillColor=none;align=left;verticalAlign=middle;spacingTop=-1;spacingLeft=3;spacingRight=3;rotatable=0;labelPosition=right;points=[];portConstraint=eastwest;strokeColor=inherit;" parent="Scy77tW3S1ukV7C9qBci-133" vertex="1">
          <mxGeometry y="70" width="170" height="8" as="geometry" />
        </mxCell>
        <mxCell id="Scy77tW3S1ukV7C9qBci-136" value="GenerateBoard(): void&#xa;GenerateStartPosition(). void&#xa;" style="text;strokeColor=none;fillColor=none;align=left;verticalAlign=top;spacingLeft=4;spacingRight=4;overflow=hidden;rotatable=0;points=[[0,0.5],[1,0.5]];portConstraint=eastwest;" parent="Scy77tW3S1ukV7C9qBci-133" vertex="1">
          <mxGeometry y="78" width="170" height="42" as="geometry" />
        </mxCell>
        <mxCell id="Scy77tW3S1ukV7C9qBci-163" value="&lt;p style=&quot;margin:0px;margin-top:4px;text-align:center;&quot;&gt;&lt;i&gt;&amp;lt;&amp;lt;Interface&amp;gt;&amp;gt;&lt;/i&gt;&lt;b&gt;&lt;br&gt;&lt;/b&gt;&lt;/p&gt;&lt;p style=&quot;margin:0px;margin-top:4px;text-align:center;&quot;&gt;&lt;b&gt;IUser&lt;/b&gt;&lt;/p&gt;&lt;hr size=&quot;1&quot;&gt;&lt;br&gt;&lt;b&gt;&lt;/b&gt;&lt;div&gt;+ name: str&lt;/div&gt;+ pieces: Collection &amp;lt;pieces&amp;gt;&lt;hr size=&quot;1&quot;&gt;&lt;div&gt;# PlayerTurn(): void&lt;/div&gt;&lt;div&gt;MovePiece()&lt;br&gt;&lt;/div&gt;" style="verticalAlign=top;align=left;overflow=fill;fontSize=12;fontFamily=Helvetica;html=1;" parent="1" vertex="1">
          <mxGeometry x="-2580" y="1520" width="190" height="140" as="geometry" />
        </mxCell>
        <mxCell id="IA7U_873xqGfDjJFMJLf-11" value="" style="endArrow=none;html=1;edgeStyle=orthogonalEdgeStyle;rounded=0;entryX=0.5;entryY=0;entryDx=0;entryDy=0;" parent="1" target="Scy77tW3S1ukV7C9qBci-56" edge="1">
          <mxGeometry relative="1" as="geometry">
            <mxPoint x="-2390" y="1590" as="sourcePoint" />
            <mxPoint x="-2180" y="1610" as="targetPoint" />
            <Array as="points">
              <mxPoint x="-2315" y="1590" />
            </Array>
          </mxGeometry>
        </mxCell>
        <mxCell id="IA7U_873xqGfDjJFMJLf-12" value="1..*" style="edgeLabel;resizable=0;html=1;align=left;verticalAlign=bottom;" parent="IA7U_873xqGfDjJFMJLf-11" connectable="0" vertex="1">
          <mxGeometry x="-1" relative="1" as="geometry" />
        </mxCell>
        <mxCell id="IA7U_873xqGfDjJFMJLf-13" value="1..*" style="edgeLabel;resizable=0;html=1;align=right;verticalAlign=bottom;" parent="IA7U_873xqGfDjJFMJLf-11" connectable="0" vertex="1">
          <mxGeometry x="1" relative="1" as="geometry" />
        </mxCell>
        <mxCell id="IA7U_873xqGfDjJFMJLf-23" value="" style="endArrow=none;html=1;edgeStyle=orthogonalEdgeStyle;rounded=0;exitX=0;exitY=0.75;exitDx=0;exitDy=0;entryX=1;entryY=0.5;entryDx=0;entryDy=0;" parent="1" source="Scy77tW3S1ukV7C9qBci-56" target="Scy77tW3S1ukV7C9qBci-62" edge="1">
          <mxGeometry relative="1" as="geometry">
            <mxPoint x="-2080" y="1890" as="sourcePoint" />
            <mxPoint x="-2580" y="1870" as="targetPoint" />
            <Array as="points">
              <mxPoint x="-2500" y="1888" />
              <mxPoint x="-2640" y="1888" />
            </Array>
          </mxGeometry>
        </mxCell>
        <mxCell id="IA7U_873xqGfDjJFMJLf-74" style="edgeStyle=orthogonalEdgeStyle;rounded=0;orthogonalLoop=1;jettySize=auto;html=1;exitX=0;exitY=0.5;exitDx=0;exitDy=0;entryX=1;entryY=0.5;entryDx=0;entryDy=0;strokeColor=#000000;startArrow=blockThin;startFill=1;endArrow=blockThin;endFill=1;" parent="1" source="IA7U_873xqGfDjJFMJLf-38" target="Scy77tW3S1ukV7C9qBci-56" edge="1">
          <mxGeometry relative="1" as="geometry" />
        </mxCell>
        <mxCell id="IA7U_873xqGfDjJFMJLf-38" value="&lt;p style=&quot;margin:0px;margin-top:4px;text-align:center;&quot;&gt;&lt;i&gt;&amp;lt;&amp;lt;Interface&amp;gt;&amp;gt;&lt;/i&gt;&lt;/p&gt;&lt;p style=&quot;margin:0px;margin-top:4px;text-align:center;&quot;&gt;&lt;b&gt;UI - Helperscreens&lt;/b&gt;&lt;br&gt;&lt;/p&gt;&lt;hr size=&quot;1&quot;&gt;&lt;p style=&quot;margin:0px;margin-left:4px;&quot;&gt;&lt;br&gt;&lt;br&gt;&lt;/p&gt;&lt;hr size=&quot;1&quot;&gt;&lt;p style=&quot;margin:0px;margin-left:4px;&quot;&gt;Event Play(): void&lt;/p&gt;&lt;p style=&quot;margin:0px;margin-left:4px;&quot;&gt;Event exit(): void&lt;br&gt;&lt;/p&gt;" style="verticalAlign=top;align=left;overflow=fill;fontSize=12;fontFamily=Helvetica;html=1;" parent="1" vertex="1">
          <mxGeometry x="-1765" y="1795" width="190" height="140" as="geometry" />
        </mxCell>
        <mxCell id="IA7U_873xqGfDjJFMJLf-60" style="edgeStyle=orthogonalEdgeStyle;rounded=0;orthogonalLoop=1;jettySize=auto;html=1;entryX=1;entryY=0.25;entryDx=0;entryDy=0;strokeColor=#000000;startArrow=classicThin;startFill=1;endArrow=classicThin;endFill=1;exitX=0;exitY=0.5;exitDx=0;exitDy=0;" parent="1" source="IA7U_873xqGfDjJFMJLf-39" target="IA7U_873xqGfDjJFMJLf-38" edge="1">
          <mxGeometry relative="1" as="geometry">
            <mxPoint x="-1330" y="1640" as="sourcePoint" />
            <Array as="points">
              <mxPoint x="-1440" y="1640" />
              <mxPoint x="-1440" y="1830" />
            </Array>
          </mxGeometry>
        </mxCell>
        <mxCell id="IA7U_873xqGfDjJFMJLf-39" value="&lt;p style=&quot;margin:0px;margin-top:4px;text-align:center;&quot;&gt;&lt;b&gt;MainWindow&lt;/b&gt;&lt;/p&gt;&lt;hr size=&quot;1&quot;&gt;&lt;p style=&quot;margin:0px;margin-left:4px;&quot;&gt;Label / Textfield Log&lt;/p&gt;&lt;p style=&quot;margin:0px;margin-left:4px;&quot;&gt;Board&lt;/p&gt;&lt;p style=&quot;margin:0px;margin-left:4px;&quot;&gt;Graveyard&lt;/p&gt;&lt;p style=&quot;margin:0px;margin-left:4px;&quot;&gt;Button Exit&lt;/p&gt;&lt;p style=&quot;margin:0px;margin-left:4px;&quot;&gt;MenuBar&lt;br&gt;&lt;/p&gt;&lt;hr size=&quot;1&quot;&gt;&lt;p style=&quot;margin:0px;margin-left:4px;&quot;&gt;Event PlayerTurnEnd()&lt;/p&gt;&lt;p style=&quot;margin:0px;margin-left:4px;&quot;&gt;Event PieceCaptured()&lt;/p&gt;&lt;p style=&quot;margin:0px;margin-left:4px;&quot;&gt;Event GameOver()&lt;br&gt;&lt;/p&gt;&lt;p style=&quot;margin:0px;margin-left:4px;&quot;&gt;&lt;br&gt;&lt;/p&gt;" style="verticalAlign=top;align=left;overflow=fill;fontSize=12;fontFamily=Helvetica;html=1;" parent="1" vertex="1">
          <mxGeometry x="-1260" y="1560" width="160" height="160" as="geometry" />
        </mxCell>
        <mxCell id="IA7U_873xqGfDjJFMJLf-40" value="Loose / WinScreen" style="swimlane;fontStyle=1;align=center;verticalAlign=top;childLayout=stackLayout;horizontal=1;startSize=26;horizontalStack=0;resizeParent=1;resizeParentMax=0;resizeLast=0;collapsible=1;marginBottom=0;" parent="1" vertex="1">
          <mxGeometry x="-1260" y="1740" width="160" height="150" as="geometry" />
        </mxCell>
        <mxCell id="IA7U_873xqGfDjJFMJLf-41" value="Textbox&#xa;Play again button&#xa;Main Menu Button&#xa;Exit Button&#xa;" style="text;strokeColor=none;fillColor=none;align=left;verticalAlign=top;spacingLeft=4;spacingRight=4;overflow=hidden;rotatable=0;points=[[0,0.5],[1,0.5]];portConstraint=eastwest;" parent="IA7U_873xqGfDjJFMJLf-40" vertex="1">
          <mxGeometry y="26" width="160" height="64" as="geometry" />
        </mxCell>
        <mxCell id="IA7U_873xqGfDjJFMJLf-42" value="" style="line;strokeWidth=1;fillColor=none;align=left;verticalAlign=middle;spacingTop=-1;spacingLeft=3;spacingRight=3;rotatable=0;labelPosition=right;points=[];portConstraint=eastwest;strokeColor=inherit;" parent="IA7U_873xqGfDjJFMJLf-40" vertex="1">
          <mxGeometry y="90" width="160" height="8" as="geometry" />
        </mxCell>
        <mxCell id="IA7U_873xqGfDjJFMJLf-43" value="Event Play()&#xa;Event MainMenu()&#xa;Event Close()&#xa;" style="text;strokeColor=none;fillColor=none;align=left;verticalAlign=top;spacingLeft=4;spacingRight=4;overflow=hidden;rotatable=0;points=[[0,0.5],[1,0.5]];portConstraint=eastwest;" parent="IA7U_873xqGfDjJFMJLf-40" vertex="1">
          <mxGeometry y="98" width="160" height="52" as="geometry" />
        </mxCell>
        <mxCell id="IA7U_873xqGfDjJFMJLf-44" value="Start Screen" style="swimlane;fontStyle=1;align=center;verticalAlign=top;childLayout=stackLayout;horizontal=1;startSize=26;horizontalStack=0;resizeParent=1;resizeParentMax=0;resizeLast=0;collapsible=1;marginBottom=0;" parent="1" vertex="1">
          <mxGeometry x="-1260" y="1910" width="160" height="150" as="geometry" />
        </mxCell>
        <mxCell id="IA7U_873xqGfDjJFMJLf-45" value="Play Button&#xa;Gamemode Button&#xa;Exit Button&#xa;Credits&#xa;&#xa;" style="text;strokeColor=none;fillColor=none;align=left;verticalAlign=top;spacingLeft=4;spacingRight=4;overflow=hidden;rotatable=0;points=[[0,0.5],[1,0.5]];portConstraint=eastwest;" parent="IA7U_873xqGfDjJFMJLf-44" vertex="1">
          <mxGeometry y="26" width="160" height="64" as="geometry" />
        </mxCell>
        <mxCell id="IA7U_873xqGfDjJFMJLf-46" value="" style="line;strokeWidth=1;fillColor=none;align=left;verticalAlign=middle;spacingTop=-1;spacingLeft=3;spacingRight=3;rotatable=0;labelPosition=right;points=[];portConstraint=eastwest;strokeColor=inherit;" parent="IA7U_873xqGfDjJFMJLf-44" vertex="1">
          <mxGeometry y="90" width="160" height="8" as="geometry" />
        </mxCell>
        <mxCell id="IA7U_873xqGfDjJFMJLf-47" value="Event:Start(): void&#xa;&#xa;Event: Close(): void&#xa;" style="text;strokeColor=none;fillColor=none;align=left;verticalAlign=top;spacingLeft=4;spacingRight=4;overflow=hidden;rotatable=0;points=[[0,0.5],[1,0.5]];portConstraint=eastwest;" parent="IA7U_873xqGfDjJFMJLf-44" vertex="1">
          <mxGeometry y="98" width="160" height="52" as="geometry" />
        </mxCell>
        <mxCell id="IA7U_873xqGfDjJFMJLf-48" style="edgeStyle=orthogonalEdgeStyle;rounded=0;orthogonalLoop=1;jettySize=auto;html=1;exitX=0;exitY=0.5;exitDx=0;exitDy=0;entryX=0.75;entryY=0;entryDx=0;entryDy=0;strokeColor=#000000;endArrow=none;endFill=0;" parent="1" source="Scy77tW3S1ukV7C9qBci-134" target="Scy77tW3S1ukV7C9qBci-56" edge="1">
          <mxGeometry relative="1" as="geometry" />
        </mxCell>
        <mxCell id="IA7U_873xqGfDjJFMJLf-62" style="edgeStyle=orthogonalEdgeStyle;rounded=0;orthogonalLoop=1;jettySize=auto;html=1;exitX=0;exitY=0.5;exitDx=0;exitDy=0;entryX=1;entryY=0.75;entryDx=0;entryDy=0;strokeColor=#000000;startArrow=classicThin;startFill=1;endArrow=classicThin;endFill=1;" parent="1" source="IA7U_873xqGfDjJFMJLf-45" target="IA7U_873xqGfDjJFMJLf-38" edge="1">
          <mxGeometry relative="1" as="geometry">
            <Array as="points">
              <mxPoint x="-1400" y="1968" />
              <mxPoint x="-1400" y="1900" />
            </Array>
          </mxGeometry>
        </mxCell>
        <mxCell id="IA7U_873xqGfDjJFMJLf-63" style="edgeStyle=orthogonalEdgeStyle;rounded=0;orthogonalLoop=1;jettySize=auto;html=1;exitX=1;exitY=0.5;exitDx=0;exitDy=0;strokeColor=#000000;startArrow=classicThin;startFill=1;endArrow=classicThin;endFill=1;entryX=0;entryY=0.5;entryDx=0;entryDy=0;" parent="1" source="IA7U_873xqGfDjJFMJLf-38" target="IA7U_873xqGfDjJFMJLf-41" edge="1">
          <mxGeometry relative="1" as="geometry">
            <mxPoint x="-1800.0000000000005" y="1980" as="targetPoint" />
            <Array as="points">
              <mxPoint x="-1400" y="1865" />
              <mxPoint x="-1400" y="1798" />
            </Array>
          </mxGeometry>
        </mxCell>
        <mxCell id="IA7U_873xqGfDjJFMJLf-68" style="edgeStyle=orthogonalEdgeStyle;rounded=0;orthogonalLoop=1;jettySize=auto;html=1;exitX=0.5;exitY=0;exitDx=0;exitDy=0;entryX=0.5;entryY=1;entryDx=0;entryDy=0;strokeColor=#000000;startArrow=block;startFill=0;endArrow=none;endFill=0;" parent="1" source="IA7U_873xqGfDjJFMJLf-64" target="Scy77tW3S1ukV7C9qBci-62" edge="1">
          <mxGeometry relative="1" as="geometry" />
        </mxCell>
        <mxCell id="IA7U_873xqGfDjJFMJLf-64" value="Move" style="swimlane;fontStyle=1;align=center;verticalAlign=top;childLayout=stackLayout;horizontal=1;startSize=26;horizontalStack=0;resizeParent=1;resizeParentMax=0;resizeLast=0;collapsible=1;marginBottom=0;" parent="1" vertex="1">
          <mxGeometry x="-2815" y="2140" width="160" height="130" as="geometry" />
        </mxCell>
        <mxCell id="IA7U_873xqGfDjJFMJLf-65" value="currentLoc: " style="text;strokeColor=none;fillColor=none;align=left;verticalAlign=top;spacingLeft=4;spacingRight=4;overflow=hidden;rotatable=0;points=[[0,0.5],[1,0.5]];portConstraint=eastwest;" parent="IA7U_873xqGfDjJFMJLf-64" vertex="1">
          <mxGeometry y="26" width="160" height="26" as="geometry" />
        </mxCell>
        <mxCell id="IA7U_873xqGfDjJFMJLf-66" value="" style="line;strokeWidth=1;fillColor=none;align=left;verticalAlign=middle;spacingTop=-1;spacingLeft=3;spacingRight=3;rotatable=0;labelPosition=right;points=[];portConstraint=eastwest;strokeColor=inherit;" parent="IA7U_873xqGfDjJFMJLf-64" vertex="1">
          <mxGeometry y="52" width="160" height="8" as="geometry" />
        </mxCell>
        <mxCell id="IA7U_873xqGfDjJFMJLf-67" value="MoveForward():&#xa;MoveBackward()&#xa;MoveLeft()&#xa;MoveRight()&#xa;" style="text;strokeColor=none;fillColor=none;align=left;verticalAlign=top;spacingLeft=4;spacingRight=4;overflow=hidden;rotatable=0;points=[[0,0.5],[1,0.5]];portConstraint=eastwest;" parent="IA7U_873xqGfDjJFMJLf-64" vertex="1">
          <mxGeometry y="60" width="160" height="70" as="geometry" />
        </mxCell>
        <mxCell id="IA7U_873xqGfDjJFMJLf-72" value="&lt;p style=&quot;margin:0px;margin-top:4px;text-align:center;&quot;&gt;&lt;b&gt;Computer AI&lt;br&gt;&lt;/b&gt;&lt;/p&gt;&lt;hr size=&quot;1&quot;&gt;&lt;p style=&quot;margin:0px;margin-left:4px;&quot;&gt;&lt;br&gt;&lt;/p&gt;&lt;hr size=&quot;1&quot;&gt;&lt;p style=&quot;margin:0px;margin-left:4px;&quot;&gt;&lt;br&gt;&lt;/p&gt;" style="verticalAlign=top;align=left;overflow=fill;fontSize=12;fontFamily=Helvetica;html=1;" parent="1" vertex="1">
          <mxGeometry x="-2890" y="1605" width="160" height="25" as="geometry" />
        </mxCell>
        <mxCell id="IA7U_873xqGfDjJFMJLf-73" style="edgeStyle=orthogonalEdgeStyle;rounded=0;orthogonalLoop=1;jettySize=auto;html=1;exitX=1;exitY=0.5;exitDx=0;exitDy=0;entryX=0;entryY=0.75;entryDx=0;entryDy=0;" parent="1" source="IA7U_873xqGfDjJFMJLf-72" target="Scy77tW3S1ukV7C9qBci-163" edge="1">
          <mxGeometry relative="1" as="geometry">
            <mxPoint x="-2750" y="1662.5" as="sourcePoint" />
            <mxPoint x="-2600" y="1670" as="targetPoint" />
          </mxGeometry>
        </mxCell>
        <mxCell id="IA7U_873xqGfDjJFMJLf-75" style="edgeStyle=orthogonalEdgeStyle;rounded=0;orthogonalLoop=1;jettySize=auto;html=1;exitX=1;exitY=0.5;exitDx=0;exitDy=0;entryX=0;entryY=0.25;entryDx=0;entryDy=0;strokeColor=#000000;startArrow=blockThin;startFill=1;endArrow=blockThin;endFill=1;" parent="1" source="Scy77tW3S1ukV7C9qBci-134" target="IA7U_873xqGfDjJFMJLf-39" edge="1">
          <mxGeometry relative="1" as="geometry" />
        </mxCell>
        <mxCell id="yHUfxGGSfnQ4oPz9yts8-5" value="&lt;&lt;enumeration&gt;&gt;&#xa;PieceType" style="swimlane;fontStyle=0;childLayout=stackLayout;horizontal=1;startSize=26;fillColor=none;horizontalStack=0;resizeParent=1;resizeParentMax=0;resizeLast=0;collapsible=1;marginBottom=0;" vertex="1" parent="1">
          <mxGeometry x="-3090" y="1690" width="140" height="130" as="geometry" />
        </mxCell>
        <mxCell id="yHUfxGGSfnQ4oPz9yts8-6" value="&lt;&lt; Constant &gt;&gt; - Pawn&#xa;&lt;&lt; Constant &gt;&gt; - Bishop&#xa;&lt;&lt; Constant &gt;&gt; - Knight&#xa;&lt;&lt; Constant &gt;&gt; - Rook&#xa;&lt;&lt; Constant &gt;&gt; - Queen&#xa;&lt;&lt; Constant &gt;&gt; - King&#xa;" style="text;strokeColor=none;fillColor=none;align=left;verticalAlign=top;spacingLeft=4;spacingRight=4;overflow=hidden;rotatable=0;points=[[0,0.5],[1,0.5]];portConstraint=eastwest;" vertex="1" parent="yHUfxGGSfnQ4oPz9yts8-5">
          <mxGeometry y="26" width="140" height="104" as="geometry" />
        </mxCell>
        <mxCell id="yHUfxGGSfnQ4oPz9yts8-10" value="1" style="text;html=1;align=center;verticalAlign=middle;resizable=0;points=[];autosize=1;strokeColor=none;fillColor=none;" vertex="1" parent="1">
          <mxGeometry x="-2955" y="1745" width="30" height="30" as="geometry" />
        </mxCell>
        <mxCell id="yHUfxGGSfnQ4oPz9yts8-11" value="&lt;&lt;enumeration&gt;&gt;&#xa;MoveDirection&#xa;" style="swimlane;fontStyle=1;align=center;verticalAlign=top;childLayout=stackLayout;horizontal=1;startSize=40;horizontalStack=0;resizeParent=1;resizeParentMax=0;resizeLast=0;collapsible=1;marginBottom=0;" vertex="1" parent="1">
          <mxGeometry x="-3320" y="2240" width="160" height="112" as="geometry" />
        </mxCell>
        <mxCell id="yHUfxGGSfnQ4oPz9yts8-13" value="" style="line;strokeWidth=1;fillColor=none;align=left;verticalAlign=middle;spacingTop=-1;spacingLeft=3;spacingRight=3;rotatable=0;labelPosition=right;points=[];portConstraint=eastwest;strokeColor=inherit;" vertex="1" parent="yHUfxGGSfnQ4oPz9yts8-11">
          <mxGeometry y="40" width="160" height="8" as="geometry" />
        </mxCell>
        <mxCell id="yHUfxGGSfnQ4oPz9yts8-14" value="&lt;&lt;Constant &gt;&gt; - Up&#xa;&lt;&lt;Constant &gt;&gt; -Down&#xa;" style="text;strokeColor=none;fillColor=none;align=left;verticalAlign=top;spacingLeft=4;spacingRight=4;overflow=hidden;rotatable=0;points=[[0,0.5],[1,0.5]];portConstraint=eastwest;" vertex="1" parent="yHUfxGGSfnQ4oPz9yts8-11">
          <mxGeometry y="48" width="160" height="64" as="geometry" />
        </mxCell>
      </root>
    </mxGraphModel>
  </diagram>
</mxfile>
